<svg xmlns="http://www.w3.org/2000/svg" viewBox="0 0 1440 320">
  <path fill="#344E98" fill-opacity="1" d="M0,64L24,69.3C48,75,96,85,144,90.7C192,96,240,96,288,90.7C336,85,384,75,432,85.3C480,96,528,128,576,133.3C624,139,672,117,720,106.7C768,96,816,96,864,80C912,64,960,32,1008,69.3C1056,107,1104,213,1152,266.7C1200,320,1248,320,1296,272C1344,224,1392,128,1416,80L1440,32L1440,0L1416,0C1392,0,1344,0,1296,0C1248,0,1200,0,1152,0C1104,0,1056,0,1008,0C960,0,912,0,864,0C816,0,768,0,720,0C672,0,624,0,576,0C528,0,480,0,432,0C384,0,336,0,288,0C240,0,192,0,144,0C96,0,48,0,24,0L0,0Z"></path>
</svg>
